<svg width="107" height="85" viewBox="0 0 107 85" fill="none" xmlns="http://www.w3.org/2000/svg">
<path d="M41.5946 0.911997C45.4346 1.872 47.9306 4.94399 49.0826 10.128C43.5146 13.2 37.8506 17.808 32.0906 23.952C26.3306 30.096 22.2986 36.816 19.9946 44.112H20.8586C28.1546 44.112 33.8186 46.032 37.8506 49.872C42.0746 53.52 44.1866 58.32 44.1866 64.272C44.1866 69.84 42.0746 74.544 37.8506 78.384C33.8186 82.224 28.9226 84.144 23.1626 84.144C16.2506 84.144 10.7786 81.744 6.74663 76.944C2.71463 71.952 0.698625 66 0.698625 59.088C0.698625 47.376 4.44263 36.912 11.9306 27.696C19.4186 18.48 29.3066 9.55199 41.5946 0.911997ZM99.1946 0.911997C103.035 1.872 105.531 4.94399 106.683 10.128C101.115 13.2 95.4506 17.808 89.6906 23.952C83.9306 30.096 79.8986 36.816 77.5946 44.112H78.4586C85.7546 44.112 91.4186 46.032 95.4506 49.872C99.6746 53.52 101.787 58.32 101.787 64.272C101.787 69.84 99.6746 74.544 95.4506 78.384C91.4186 82.224 86.5226 84.144 80.7626 84.144C73.8506 84.144 68.3786 81.744 64.3466 76.944C60.3146 71.952 58.2986 66 58.2986 59.088C58.2986 47.376 62.0426 36.912 69.5306 27.696C77.0186 18.48 86.9066 9.55199 99.1946 0.911997Z" fill="#F1EEEC"/>
</svg>
